<svg width="285" height="224" viewBox="0 0 285 224" fill="none" xmlns="http://www.w3.org/2000/svg">
<mask id="mask0_2401_14301" style="mask-type:alpha" maskUnits="userSpaceOnUse" x="0" y="0" width="285" height="224">
<path fill-rule="evenodd" clip-rule="evenodd" d="M285 0H0V224H120V168H273V224H285V0Z" fill="#C4C4C4"/>
</mask>
<g mask="url(#mask0_2401_14301)">
<g filter="url(#filter0_d_2401_14301)">
<path d="M14.9199 59.4561C19.8693 57.4081 24.9893 55.1041 30.2799 52.5441C35.7413 49.8134 41.0319 46.9121 46.1519 43.8401C51.2719 40.5974 56.1359 37.2694 60.7439 33.8561C65.5226 30.2721 69.7893 26.5174 73.5439 22.5921H100.168V200H62.0239V72.2561C56.9039 75.6694 51.1866 78.8268 44.8719 81.7281C38.5573 84.4588 32.4133 86.8481 26.4399 88.8961L14.9199 59.4561Z" fill="white"/>
<path d="M252.58 150.592C252.58 158.272 251.215 165.355 248.484 171.84C245.924 178.155 241.999 183.701 236.708 188.48C231.417 193.259 224.761 197.013 216.74 199.744C208.889 202.304 199.759 203.584 189.348 203.584C177.401 203.584 167.417 201.963 159.396 198.72C151.545 195.307 145.145 191.125 140.196 186.176C135.417 181.227 132.004 175.851 129.956 170.048C127.908 164.075 126.884 158.613 126.884 153.664C126.884 148.544 127.567 143.851 128.932 139.584C130.297 135.317 132.175 131.477 134.564 128.064C136.953 124.48 139.599 121.237 142.5 118.336C145.572 115.435 148.815 112.704 152.228 110.144C144.889 104.171 139.428 98.2828 135.844 92.4801C132.431 86.6774 130.724 79.2534 130.724 70.2081C130.724 63.3814 132.089 56.8108 134.82 50.4961C137.721 44.1814 141.732 38.7201 146.852 34.1121C151.972 29.3334 158.116 25.5788 165.284 22.8481C172.623 19.9468 180.729 18.4961 189.604 18.4961C200.015 18.4961 208.889 20.0321 216.228 23.1041C223.737 26.0054 229.881 29.7601 234.66 34.3681C239.439 38.9761 242.852 44.1814 244.9 49.9841C247.119 55.6161 248.228 61.2481 248.228 66.8801C248.228 75.0721 246.009 82.7521 241.572 89.9201C237.305 96.9174 231.929 102.464 225.444 106.56C235.172 112.875 242.084 119.531 246.18 126.528C250.447 133.355 252.58 141.376 252.58 150.592ZM164.004 152.128C164.004 154.176 164.431 156.48 165.284 159.04C166.308 161.429 167.844 163.648 169.892 165.696C171.94 167.744 174.585 169.451 177.828 170.816C181.071 172.181 184.996 172.864 189.604 172.864C198.479 172.864 204.964 170.731 209.06 166.464C213.156 162.197 215.204 157.419 215.204 152.128C215.204 148.203 214.265 144.704 212.388 141.632C210.681 138.56 208.292 135.915 205.22 133.696C202.148 131.307 198.479 129.259 194.212 127.552C190.116 125.675 185.679 123.968 180.9 122.432C176.121 126.016 172.111 130.197 168.868 134.976C165.625 139.755 164.004 145.472 164.004 152.128ZM211.364 67.9041C211.364 66.0268 210.937 64.0641 210.084 62.0161C209.401 59.7974 208.121 57.7494 206.244 55.8721C204.537 53.9948 202.319 52.4588 199.588 51.2641C196.857 49.8988 193.529 49.2161 189.604 49.2161C185.849 49.2161 182.607 49.8134 179.876 51.0081C177.145 52.2028 174.841 53.8241 172.964 55.8721C171.257 57.7494 169.977 59.7974 169.124 62.0161C168.271 64.2348 167.844 66.3681 167.844 68.4161C167.844 73.8774 169.807 78.9974 173.732 83.7761C177.828 88.5548 184.74 92.6508 194.468 96.0641C199.929 92.6508 204.111 88.7254 207.012 84.2881C209.913 79.8508 211.364 74.3894 211.364 67.9041Z" fill="white"/>
</g>
</g>
<defs>
<filter id="filter0_d_2401_14301" x="12.9199" y="16.4961" width="241.66" height="189.088" filterUnits="userSpaceOnUse" color-interpolation-filters="sRGB">
<feFlood flood-opacity="0" result="BackgroundImageFix"/>
<feColorMatrix in="SourceAlpha" type="matrix" values="0 0 0 0 0 0 0 0 0 0 0 0 0 0 0 0 0 0 127 0" result="hardAlpha"/>
<feOffset/>
<feGaussianBlur stdDeviation="1"/>
<feComposite in2="hardAlpha" operator="out"/>
<feColorMatrix type="matrix" values="0 0 0 0 0.0509804 0 0 0 0 0.0509804 0 0 0 0 0.0588235 0 0 0 0.3 0"/>
<feBlend mode="normal" in2="BackgroundImageFix" result="effect1_dropShadow_2401_14301"/>
<feBlend mode="normal" in="SourceGraphic" in2="effect1_dropShadow_2401_14301" result="shape"/>
</filter>
</defs>
</svg>
